# xmcd
#
# Track frame offsets:
#	150
#	14687
#	23975
#	35597
#	46345
#	60472
#	76085
#	98560
#	108077
#	121285
#	135290
#	152930
#
# Disc length: 2226 seconds
#
# Revision: 3
# Processed by: cddbd v1.4PL0 Copyright (c) Steve Scherf et al.
# Submitted via: audiograbber 1.81.00
#
DISCID=8b08b00c
DTITLE=Various Artist - Great American Songwriters-Johnny Mercer
DYEAR=1900
DGENRE=Vocal
TTITLE0=Eartha Kitt - Autumn Leaves
TTITLE1=Rod McKuen - Once Upon A Summertime
TTITLE2=Glenn Miller - Fools Rush In
TTITLE3=Dinah Shore - Day In - Day Out
TTITLE4=Roc McKuen - Good Companions
TTITLE5=Johnny Mercer - Bob White
TTITLE6=Jeri Southern - I Remember You
TTITLE7=Rod McKuen - When The World Was Young
TTITLE8=Martha Tilton - And The Angels Sing
TTITLE9=Rod McKuen - This Time The Dreams On Me
TTITLE10=Joanie Sommers - Old Guitaron
TTITLE11=Johnny Mercer - One For My Baby And One More For The Road
EXTD=
EXTT0=
EXTT1=
EXTT2=
EXTT3=
EXTT4=
EXTT5=
EXTT6=
EXTT7=
EXTT8=
EXTT9=
EXTT10=
EXTT11=
PLAYORDER=
